<svg xmlns="http://www.w3.org/2000/svg" viewBox="0 0 122.88 119.81"><path d="M21.76 0h79.36c12.03 0 21.76 9.73 21.76 21.76v76.3c0 12.03-9.73 21.76-21.76 21.76H21.76C9.73 119.81 0 110.08 0 98.05v-76.3C0 9.73 9.73 0 21.76 0z" fill="#001e36"/><path d="M64.51 84.68H32.06c-.58 0-.81-.29-.81-.91V31.44c-.05-.33.19-.67.58-.72h10.21c.24-.05.58.14.58.43v43.13h23.67c.53 0 .67.24.58.72l-1.49 8.91c0 .24-.14.48-.29.62-.2.11-.39.15-.58.15zm8.19-40.97h8.96c.53 0 .91.34 1.05.81.19.34.34.77.43 1.2.1.53.19 1.05.24 1.58.05.58.1 1.2.1 1.82 1.53-1.77 3.4-3.26 5.46-4.41a14.68 14.68 0 017.62-1.82c.34-.05.67.19.72.57v10.21c0 .43-.24.58-.81.58-3.31-.19-6.66.43-9.68 1.73-1.01.48-2.01 1.05-2.78 1.92v26.12c0 .53-.19.72-.67.72h-9.97c-.43.05-.77-.19-.81-.62V55.54c0-1.25 0-2.49-.05-3.83-.05-1.34-.05-2.68-.1-3.98-.05-1.15-.14-2.25-.29-3.4-.05-.24.1-.53.34-.58.1-.09.15-.09.24-.04z" fill="#31a8ff"/></svg>